 <svg xmlns="http://www.w3.org/2000/svg" viewBox="0 0 50 50">
                  <g transform="translate(-170 -260)">
                    <g id="Group_18" data-name="Group 18" transform="translate(170.191 260.191)">
                      <rect id="Rectangle_5" data-name="Rectangle 5" width="50" height="50"
                        transform="translate(-0.191 -0.191)" fill="#f5dcdc" />
                      <g id="boy" transform="translate(11.078 5.63)">
                        <path id="Path_1" data-name="Path 1"
                          d="M106.528,29.257a2.63,2.63,0,0,0-1.778-2.169l-3.209-1.07a1.315,1.315,0,0,0-1.264.236l-.945-.315a1.315,1.315,0,0,1-.9-1.247v-2.12l2.832-1.18a3.944,3.944,0,0,0,2.428-3.641v-.657a1.972,1.972,0,0,0,1.555-3.185,16.805,16.805,0,0,0,.417-10.621s-.235-.173-.675-.432a4.389,4.389,0,0,0-.64-2.2l-2.4.8A25.749,25.749,0,0,0,93.174,0a2.778,2.778,0,0,1-1.315.657A35.965,35.965,0,0,0,87.256,0L85.942,3.287s-3.287-.027-3.287,3.945a44.2,44.2,0,0,0,1.159,6.576,1.972,1.972,0,0,0,1.471,3.286v.657a3.945,3.945,0,0,0,2.428,3.641l2.832,1.18v2.12a1.315,1.315,0,0,1-.9,1.247l-.945.315a1.315,1.315,0,0,0-1.264-.236l-3.209,1.07a2.63,2.63,0,0,0-1.778,2.169c-.823,4.592.507,4.914.206,5.359v2.2a1.315,1.315,0,0,0,1.315,1.315h21.039a1.315,1.315,0,0,0,1.315-1.315l-.2-2.185S106.763,33.535,106.528,29.257Z"
                          transform="translate(-81.734)" fill="#f5bf96" />
                        <g id="Group_1" data-name="Group 1" transform="translate(8.151 22.518)">
                          <path id="Path_2" data-name="Path 2"
                            d="M184.531,274h-7.889v2.175a1.3,1.3,0,0,1-.659,1.122A8.928,8.928,0,0,0,184.531,274Z"
                            transform="translate(-175.983 -274)" fill="#e1ad86" />
                        </g>
                        <path id="Path_3" data-name="Path 3"
                          d="M116.381,108.6v-1.315A3.287,3.287,0,0,0,113.094,104H101.26a3.287,3.287,0,0,0-3.287,3.287V108.6a1.972,1.972,0,1,0,0,3.945v.657a3.945,3.945,0,0,0,2.428,3.641l4.248,1.77a6.575,6.575,0,0,0,2.529.506h0a6.575,6.575,0,0,0,2.529-.506l4.248-1.77a3.944,3.944,0,0,0,2.427-3.641v-.657a1.972,1.972,0,1,0,0-3.945Z"
                          transform="translate(-94.422 -95.453)" fill="#f5bf96" />
                        <g id="Group_2" data-name="Group 2" transform="translate(0.09 25.95)">
                          <path id="Path_4" data-name="Path 4"
                            d="M97.787,327.95v-3.287l5.454-.141-.647-5.446a2.63,2.63,0,0,0-1.778-2.169l-3.209-1.07a1.294,1.294,0,0,0-1.5.51c-1.165,1.836-3.214,2.234-5.55,2.234s-4.384-.4-5.55-2.234a1.294,1.294,0,0,0-1.5-.51l-3.209,1.07a2.63,2.63,0,0,0-1.778,2.169l-.625,5,5.433.01v3.863Z"
                            transform="translate(-77.89 -315.768)" fill="#7441ae" />
                        </g>
                        <g id="Group_3" data-name="Group 3" transform="translate(7.495 13.806)">
                          <path id="Path_5" data-name="Path 5"
                            d="M168.658,169.972h0a.659.659,0,0,1-.657-.657v-.657a.659.659,0,0,1,.657-.657h0a.659.659,0,0,1,.657.657v.657A.659.659,0,0,1,168.658,169.972Z"
                            transform="translate(-168.001 -168)" fill="#503329" />
                        </g>
                        <g id="Group_4" data-name="Group 4" transform="translate(16.7 13.806)">
                          <path id="Path_6" data-name="Path 6"
                            d="M280.657,169.972h0a.659.659,0,0,1-.657-.657v-.657a.659.659,0,0,1,.657-.657h0a.659.659,0,0,1,.657.657v.657A.659.659,0,0,1,280.657,169.972Z"
                            transform="translate(-280 -168)" fill="#503329" />
                        </g>
                        <g id="Group_6" data-name="Group 6" transform="translate(9.468 18.408)">
                          <g id="Group_5" data-name="Group 5">
                            <path id="Path_7" data-name="Path 7"
                              d="M195.287,225.989a5.476,5.476,0,0,1-3-.789.657.657,0,1,1,.74-1.087,4.829,4.829,0,0,0,4.52,0,.657.657,0,1,1,.74,1.087A5.476,5.476,0,0,1,195.287,225.989Z"
                              transform="translate(-192 -223.998)" fill="#e59469" />
                          </g>
                        </g>
                        <path id="Path_8" data-name="Path 8"
                          d="M101.424,115.483a3.082,3.082,0,0,1-.821-2.106v-5.8c1.815-.981,7.117-3.574,12.492-3.574H101.26a3.091,3.091,0,0,0-.657.072v-.006a3.288,3.288,0,0,0-2.63,3.221V108.6a1.972,1.972,0,1,0,0,3.945v.657a3.945,3.945,0,0,0,2.428,3.641l4.248,1.77a6.587,6.587,0,0,0,.635.226A27.443,27.443,0,0,1,101.424,115.483Z"
                          transform="translate(-94.422 -95.453)" fill="#e1ad86" />
                        <g id="Group_7" data-name="Group 7" transform="translate(0 27.955)">
                          <path id="Path_9" data-name="Path 9"
                            d="M82.321,347.554v-1.488a2.63,2.63,0,0,0-.642-1.722l-3.618-4.176a2.624,2.624,0,0,0-.548,1.3l-.715,5.567A53.923,53.923,0,0,0,82.321,347.554Z"
                            transform="translate(-76.798 -340.168)" fill="#48286b" />
                        </g>
                        <g id="Group_9" data-name="Group 9" transform="translate(19.987 27.955)">
                          <path id="Path_11" data-name="Path 11"
                            d="M320,347.554v-1.488a2.63,2.63,0,0,1,.642-1.722l3.617-4.176a2.624,2.624,0,0,1,.548,1.3l.687,5.494C324.449,347.026,321.667,347.352,320,347.554Z"
                            transform="translate(-320 -340.168)" fill="#48286b" />
                        </g>
                        <g id="Group_11" data-name="Group 11" transform="translate(0.921)">
                          <path id="Path_13" data-name="Path 13"
                            d="M111.012,3.287s-.235-.173-.675-.432a4.389,4.389,0,0,0-.64-2.2l-2.4.8A25.749,25.749,0,0,0,98.52,0a2.778,2.778,0,0,1-1.315.657A35.964,35.964,0,0,0,92.6,0L91.288,3.287S88,3.26,88,7.232a44.272,44.272,0,0,0,1.161,6.584,1.959,1.959,0,0,1,1.469-.667V11.834a3.285,3.285,0,0,1,3.24-3.282,7.3,7.3,0,0,0-.61,1.968,11.557,11.557,0,0,1,6.575-1.972h5.917a3.287,3.287,0,0,1,3.287,3.287v1.315a1.961,1.961,0,0,1,1.552.768A16.806,16.806,0,0,0,111.012,3.287Z"
                            transform="translate(-88.001)" fill="#5d4330" />
                        </g>
                        <g id="Group_12" data-name="Group 12" transform="translate(0.921)">
                          <path id="Path_14" data-name="Path 14"
                            d="M109.7.657l-2.4.8A25.749,25.749,0,0,0,98.52,0a2.778,2.778,0,0,1-1.315.657A35.964,35.964,0,0,0,92.6,0L91.288,3.287S88,3.26,88,7.232a44.272,44.272,0,0,0,1.161,6.584,1.959,1.959,0,0,1,1.469-.667V11.834a3.276,3.276,0,0,1,3-3.258,5.865,5.865,0,0,0-.367,1.943c2.589-3.287,6.266-4.473,9.2-5.26,2.917-.781,3.287-1.972,3.287-1.972A4.83,4.83,0,0,0,109.7.657Z"
                            transform="translate(-88.001)" fill="#4b3423" />
                        </g>
                      </g>
                    </g>
                  </g>
                </svg>